<?xml version="1.0" standalone="no"?>
<!DOCTYPE svg PUBLIC "-//W3C//DTD SVG 20010904//EN"
 "http://www.w3.org/TR/2001/REC-SVG-20010904/DTD/svg10.dtd">
<svg version="1.0" xmlns="http://www.w3.org/2000/svg"
 width="710.000000pt" height="599.000000pt" viewBox="0 0 710.000000 599.000000"
 preserveAspectRatio="xMidYMid meet">

<g transform="translate(0.000000,599.000000) scale(0.100000,-0.100000)"
fill="#000000" stroke="none">
<path d="M3185 5900 c-223 -15 -537 -72 -765 -140 -200 -59 -503 -186 -665
-278 -38 -21 -92 -52 -120 -67 -27 -16 -84 -54 -125 -84 -41 -31 -88 -65 -104
-75 -138 -88 -334 -270 -532 -491 -178 -199 -399 -577 -489 -835 -44 -125 -65
-200 -91 -320 -39 -179 -44 -213 -57 -400 -38 -502 87 -1029 350 -1480 60
-102 59 -102 148 -230 113 -164 439 -506 571 -598 29 -20 106 -75 171 -122
346 -250 856 -460 1313 -540 368 -65 710 -78 1055 -40 142 16 411 65 519 96
50 14 115 32 145 40 29 8 82 26 116 39 34 14 65 25 69 25 5 0 22 6 39 14 18 8
73 32 122 52 266 112 508 256 740 441 6 5 39 31 75 60 67 52 244 230 362 363
75 85 150 189 234 330 31 52 69 115 85 140 69 111 192 417 226 560 76 323 99
522 89 777 -9 257 -56 507 -143 767 -38 113 -145 341 -204 436 -19 30 -44 72
-54 93 -64 122 -285 395 -462 568 -111 110 -427 349 -552 420 -173 97 -224
124 -286 151 -38 17 -92 41 -120 53 -88 41 -308 122 -375 138 -36 9 -101 25
-145 36 -132 34 -156 39 -265 55 -58 9 -130 21 -161 26 -145 26 -475 35 -714
20z m335 -100 c0 -6 40 -10 99 -10 112 0 386 -26 416 -39 11 -5 73 -17 138
-26 64 -10 117 -20 117 -24 0 -4 39 -15 88 -25 48 -10 92 -21 97 -25 6 -4 30
-13 55 -20 25 -7 59 -19 75 -26 17 -8 53 -21 80 -30 67 -22 145 -58 145 -67 0
-5 8 -8 18 -8 9 0 53 -18 97 -40 44 -22 85 -40 92 -40 6 0 13 -4 15 -8 2 -5
43 -30 92 -57 48 -26 108 -63 132 -81 24 -19 49 -34 54 -34 6 0 13 -7 16 -15
4 -8 10 -13 14 -10 4 2 15 -4 25 -15 10 -11 22 -20 27 -20 8 0 31 -18 72 -57
13 -13 28 -23 33 -23 5 0 19 -10 30 -22 12 -13 38 -34 58 -48 49 -33 345 -331
345 -347 0 -3 21 -28 46 -56 25 -28 52 -65 61 -81 9 -17 19 -33 23 -36 13 -8
80 -109 80 -119 0 -5 6 -16 13 -23 33 -36 171 -300 182 -346 3 -18 11 -32 15
-32 5 0 14 -19 20 -42 6 -24 17 -56 25 -73 7 -16 19 -50 26 -75 7 -25 16 -47
19 -50 3 -3 14 -50 24 -105 11 -55 22 -102 26 -105 11 -8 40 -268 40 -358 0
-48 4 -82 10 -82 6 0 10 -25 10 -55 0 -30 -4 -55 -10 -55 -6 0 -10 -37 -10
-91 0 -97 -28 -341 -41 -349 -4 -3 -14 -50 -24 -105 -9 -55 -21 -105 -25 -110
-5 -6 -14 -33 -21 -60 -7 -28 -20 -66 -31 -85 -10 -19 -18 -40 -18 -46 0 -6
-13 -38 -30 -70 -16 -32 -30 -67 -30 -76 0 -10 -4 -18 -9 -18 -5 0 -17 -22
-27 -50 -10 -27 -22 -50 -26 -50 -4 0 -8 -4 -8 -9 0 -9 -66 -125 -83 -146 -4
-5 -24 -35 -45 -67 -77 -117 -127 -185 -181 -248 -114 -131 -292 -308 -368
-365 -43 -33 -98 -76 -123 -96 -25 -20 -74 -56 -109 -80 -35 -24 -82 -57 -104
-72 -22 -16 -50 -33 -61 -38 -12 -5 -48 -25 -81 -44 -33 -19 -76 -43 -95 -52
-19 -10 -40 -23 -46 -28 -6 -6 -31 -17 -55 -25 -24 -8 -46 -17 -49 -20 -3 -3
-21 -12 -40 -19 -19 -8 -54 -22 -77 -32 -24 -11 -62 -27 -85 -37 -24 -11 -63
-25 -88 -32 -25 -8 -49 -17 -55 -21 -5 -4 -46 -15 -90 -24 -44 -10 -82 -21
-85 -25 -6 -9 -173 -40 -212 -40 -14 0 -28 -4 -30 -9 -3 -9 -240 -41 -305 -41
-17 0 -33 -5 -35 -11 -5 -16 -611 -16 -616 0 -2 6 -17 11 -34 11 -52 0 -313
32 -318 39 -3 4 -54 15 -115 25 -60 10 -112 21 -115 26 -3 4 -41 15 -84 24
-44 9 -84 20 -90 24 -6 5 -38 17 -71 27 -33 10 -69 24 -80 31 -11 6 -35 15
-54 19 -19 4 -40 13 -47 19 -6 7 -31 18 -55 26 -24 8 -46 17 -49 20 -3 4 -26
15 -52 25 -27 10 -48 22 -48 26 0 5 -5 9 -11 9 -17 0 -227 118 -299 168 -36
25 -83 62 -106 81 -23 20 -88 71 -145 113 -109 80 -294 262 -440 433 -88 103
-180 235 -250 359 -22 39 -44 78 -49 86 -5 8 -16 31 -25 50 -8 19 -28 59 -44
87 -16 29 -35 70 -41 90 -7 21 -16 43 -21 48 -4 6 -13 33 -20 60 -6 28 -18 60
-26 73 -7 12 -21 62 -30 110 -8 48 -19 92 -24 97 -4 6 -15 69 -24 140 -10 72
-22 139 -27 149 -14 26 -13 487 1 512 5 11 17 75 26 144 9 68 20 129 25 135 5
6 14 45 21 86 6 40 17 88 25 104 7 17 20 53 29 80 9 28 23 64 31 82 8 17 14
35 14 39 0 20 138 282 197 376 24 37 43 70 43 73 0 2 20 31 44 62 24 32 49 70
57 85 25 48 348 387 442 463 51 41 101 84 112 95 12 11 26 20 33 20 7 0 15 7
18 15 4 8 12 15 19 15 6 0 20 9 30 20 10 11 20 18 22 16 4 -4 14 3 64 49 9 8
19 15 23 15 4 0 20 8 34 19 15 10 53 33 84 49 86 47 103 56 108 63 3 3 26 14
53 24 26 10 47 21 47 24 0 4 17 13 38 20 34 11 124 51 165 72 9 5 39 16 65 25
26 8 65 24 88 34 22 10 58 22 80 26 21 3 44 10 50 15 5 5 46 16 90 25 43 10
81 21 84 25 3 4 59 16 125 25 66 9 122 20 125 24 8 11 313 40 423 40 58 0 97
4 97 10 0 6 30 10 70 10 40 0 70 -4 70 -10z"/>
<path d="M4180 5259 c-107 -88 -220 -215 -220 -246 0 -11 -8 -27 -18 -36 -17
-16 -20 -16 -39 6 -11 12 -29 36 -39 52 -25 41 -69 81 -95 88 -15 4 -29 -3
-49 -25 l-28 -30 -35 26 c-41 31 -68 33 -92 6 -24 -26 -49 -25 -110 5 -27 13
-60 25 -72 25 -12 0 -25 5 -28 10 -3 6 -24 10 -46 10 -21 0 -39 4 -39 9 0 13
-133 32 -265 38 -120 5 -324 -16 -349 -36 -6 -5 -24 -12 -41 -15 -57 -10 -119
-27 -130 -35 -24 -18 -135 -43 -166 -38 -63 11 -144 31 -149 38 -10 13 -126
27 -229 27 -113 0 -261 -16 -261 -29 0 -4 -35 -15 -77 -24 -43 -9 -86 -21 -95
-26 -9 -5 -47 -13 -85 -19 -37 -6 -69 -13 -72 -15 -6 -7 91 -95 104 -95 7 0
20 -9 30 -20 10 -11 22 -20 27 -20 5 0 48 -18 95 -40 123 -58 195 -71 405 -71
182 0 247 7 355 43 87 29 164 19 257 -30 38 -20 75 -46 83 -58 12 -19 9 -26
-34 -76 -79 -92 -143 -176 -152 -200 -5 -13 -46 -63 -93 -113 -109 -117 -142
-161 -173 -226 -35 -78 -40 -126 -20 -216 25 -111 68 -174 174 -250 45 -33 95
-88 200 -221 57 -72 162 -188 233 -258 108 -105 128 -129 116 -139 -15 -15
-342 -41 -383 -31 -13 3 -37 25 -54 49 -16 23 -50 62 -75 87 -49 47 -58 70
-27 70 11 0 23 5 26 10 3 6 30 10 60 10 68 0 102 13 116 44 32 69 -22 106
-155 106 -51 0 -96 -4 -101 -9 -6 -4 -109 -14 -230 -20 -234 -13 -255 -18
-277 -67 -10 -20 -9 -31 4 -52 27 -46 52 -52 178 -46 l115 6 85 -92 c47 -50
107 -114 133 -142 50 -52 53 -66 21 -113 -8 -11 -14 -27 -14 -36 0 -9 -11 -37
-25 -63 -14 -26 -25 -52 -25 -58 0 -16 -52 -131 -68 -150 -15 -18 -64 -15 -90
5 -19 15 -295 15 -313 1 -8 -7 -51 -17 -97 -23 -124 -16 -293 -104 -410 -214
-54 -51 -172 -202 -172 -220 0 -5 -15 -42 -34 -81 -47 -96 -59 -168 -54 -322
l4 -129 49 -105 c29 -64 71 -133 106 -177 58 -70 178 -183 195 -183 5 0 18 -9
27 -21 10 -11 53 -37 95 -57 42 -20 79 -39 82 -42 24 -29 262 -56 413 -47 94
6 202 26 252 47 150 63 232 112 319 191 61 55 136 150 171 214 39 71 86 211
92 272 3 29 11 57 17 62 7 6 54 14 106 20 116 11 128 6 99 -50 -16 -33 -19
-56 -17 -145 2 -119 11 -134 78 -134 43 0 60 -15 60 -51 0 -15 6 -31 13 -36
16 -13 302 11 322 27 7 6 11 18 8 26 -10 28 17 44 76 44 31 0 74 5 96 11 22 5
49 11 61 13 39 6 109 51 122 79 19 40 7 65 -39 77 -21 6 -45 10 -52 9 -6 -1
-23 2 -37 8 -14 6 -33 14 -43 17 -17 6 -16 9 9 39 51 60 74 124 74 207 -1 61
-5 84 -25 120 -53 97 -52 85 -7 139 23 27 42 52 42 55 0 3 28 44 61 91 62 87
118 140 140 133 22 -7 142 28 153 45 15 23 -4 51 -36 55 -14 2 -33 11 -41 20
-14 16 -11 23 36 82 29 35 57 64 62 64 9 0 122 -155 141 -193 8 -15 5 -20 -63
-131 -23 -36 -49 -90 -58 -120 -10 -30 -22 -63 -27 -73 -21 -42 -32 -198 -20
-281 13 -87 49 -205 79 -258 23 -42 91 -133 132 -176 172 -185 473 -294 728
-263 101 12 239 42 268 58 11 6 52 27 92 47 273 133 441 380 469 687 10 110
-22 254 -83 376 -37 74 -63 108 -127 173 -105 104 -130 123 -218 169 -165 86
-362 125 -528 103 -158 -21 -323 -83 -449 -169 l-34 -23 -27 27 c-15 16 -37
48 -49 73 -12 25 -29 59 -38 75 -29 52 -128 278 -143 325 -7 25 -18 51 -23 57
-16 21 0 43 32 43 37 0 151 91 151 120 0 11 5 20 10 20 6 0 10 20 10 44 0 53
12 79 72 146 50 57 70 118 48 145 -7 8 -36 26 -66 41 -30 14 -54 30 -54 34 0
4 -13 10 -29 13 -16 4 -55 30 -86 59 -31 29 -69 57 -83 62 -15 5 -30 13 -34
19 -3 6 -59 11 -126 12 -112 2 -124 4 -184 34 -36 17 -73 39 -82 49 -15 17
-15 21 0 51 9 17 19 62 22 98 6 54 11 70 27 78 68 34 122 106 149 199 12 40
13 41 76 54 114 24 137 25 169 9 62 -31 86 -31 113 2 14 16 28 47 31 68 7 40
44 85 89 107 19 10 23 21 26 68 2 34 9 61 17 68 8 7 15 27 15 44 0 43 16 56
66 56 23 0 47 6 53 13 6 8 12 43 13 78 3 56 0 69 -22 96 -17 21 -34 32 -52 32
-15 1 -29 5 -32 10 -8 12 -83 51 -99 51 -7 0 -28 11 -45 24 -18 13 -54 26 -80
30 -26 3 -60 15 -77 26 -38 25 -83 25 -115 -1z m-695 -1741 c62 -12 73 -22 53
-45 -18 -20 -32 -71 -43 -147 -4 -26 -10 -44 -15 -40 -9 10 -140 261 -140 268
0 3 21 -2 48 -10 26 -9 70 -20 97 -26z m723 -50 c49 -66 62 -91 54 -105 -6 -8
-271 -36 -279 -29 -1 1 11 28 27 61 16 33 30 65 30 72 0 17 33 33 69 33 16 0
33 5 36 10 11 18 22 11 63 -42z m-218 -228 c7 -28 16 -53 21 -56 5 -3 9 -16 9
-29 0 -20 -6 -25 -43 -30 -24 -4 -55 -5 -70 -3 -25 3 -26 4 -12 28 16 29 26
50 48 103 9 20 20 37 25 37 6 0 15 -23 22 -50z m122 -320 c24 -49 22 -59 -20
-114 -20 -27 -44 -59 -52 -71 -52 -78 -104 -145 -112 -145 -6 0 -23 9 -38 20
-16 12 -54 32 -84 46 -39 18 -56 31 -56 44 0 10 -8 32 -17 48 -17 29 -16 32
10 85 15 31 27 60 27 65 0 26 40 38 164 48 72 6 138 11 146 10 8 -1 23 -17 32
-36z m-949 -61 c4 -14 -3 -33 -19 -54 -13 -18 -36 -61 -50 -96 -22 -52 -26
-80 -26 -149 l0 -85 -46 50 c-227 245 -282 307 -277 314 5 10 87 19 245 27 63
4 117 8 119 10 14 13 49 1 54 -17z m-306 -424 l271 -284 7 -111 c6 -89 5 -115
-6 -125 -9 -8 -57 -15 -125 -20 l-110 -6 -14 43 c-22 71 -77 184 -117 240 -48
69 -177 196 -232 228 -90 53 -87 42 -39 155 52 119 76 165 87 165 4 0 130
-128 278 -285z m2422 181 c103 -17 248 -95 333 -180 84 -84 89 -91 126 -166
129 -267 40 -594 -211 -778 -292 -214 -703 -194 -957 46 -44 42 -80 79 -80 84
0 5 -10 25 -23 46 -13 20 -35 71 -50 112 -23 65 -27 90 -27 187 0 96 4 124 27
190 25 74 66 153 79 153 4 0 67 -59 141 -130 73 -72 150 -141 171 -155 20 -14
53 -36 73 -49 20 -14 47 -40 60 -58 71 -103 162 -125 247 -61 66 49 88 120 59
185 -14 30 -81 87 -106 89 -53 4 -108 -3 -128 -17 -21 -13 -27 -14 -46 -1 -72
48 -327 316 -327 344 0 40 184 129 325 158 58 12 242 12 314 1z m-1526 -269
c-10 -12 -19 -24 -20 -26 -2 -2 -3 12 -3 33 0 34 1 36 21 26 20 -11 20 -12 2
-33z m-1687 27 c110 -8 111 -8 83 -85 -12 -35 -28 -73 -35 -84 -6 -11 -15 -31
-19 -45 -4 -14 -24 -61 -45 -105 -20 -44 -43 -97 -50 -118 -9 -28 -21 -43 -44
-52 -75 -32 -116 -88 -116 -160 0 -56 41 -114 94 -135 61 -23 158 -9 201 29
15 14 51 21 140 30 66 6 176 17 245 26 161 18 179 18 187 -1 8 -22 -22 -137
-53 -197 -15 -29 -34 -65 -42 -81 -20 -39 -126 -145 -186 -186 -177 -120 -488
-151 -695 -68 -222 89 -301 170 -423 432 -17 37 -18 272 -2 307 7 13 17 43 23
67 18 63 84 164 154 231 93 88 238 161 372 185 85 16 119 17 211 10z m372
-126 c114 -77 202 -185 202 -247 0 -11 9 -29 20 -39 24 -22 37 -77 21 -87 -7
-3 -82 -13 -169 -21 -86 -8 -194 -18 -240 -22 -45 -4 -87 -5 -92 -2 -11 7 0
39 54 155 18 39 50 111 71 160 43 100 63 135 77 135 5 0 30 -14 56 -32z m1243
-6 c-5 -10 -17 -24 -25 -32 -13 -10 -16 -10 -16 3 0 29 12 47 31 47 16 0 18
-4 10 -18z m19 -366 c0 -54 -23 -106 -62 -142 -22 -19 -47 -34 -56 -32 -23 4
-30 58 -8 58 9 0 30 13 48 29 28 25 31 33 22 49 -13 19 -6 40 24 75 19 21 32
7 32 -37z"/>
</g>
</svg>
